# xmcd
#
# Track frame offsets: 
#        182
#        20032
#        43955
#        62887
#        75282
#        95805
#        110340
#        132635
#        150535
#        168460
#        186857
#        211100
#        226400
#
# Disc length: 3209 seconds
#
# Revision: 2
# Processed by: cddbd v1.5.1PL2 Copyright (c) Steve Scherf et al.
# Submitted via: ExactAudioCopy v0.95b4
#
DISCID=b10c870d
DTITLE=Laid Back - Why Is Everybody In Such A Hurry !
DYEAR=1993
DGENRE=Pop
TTITLE0=Hoot Nat Noot
TTITLE1=East Coast Man
TTITLE2=I Can't Live Without Love
TTITLE3=Groovie Train
TTITLE4=Island Of K.
TTITLE5=Walk The Blues
TTITLE6=Why Is Everybody In Such A Hurry !
TTITLE7=Universe Of Love
TTITLE8=My Little Fish
TTITLE9=Years Run Wild
TTITLE10=Sunqueen
TTITLE11=New Day
TTITLE12=Wax Dream
EXTD=
EXTT0=
EXTT1=
EXTT2=
EXTT3=
EXTT4=
EXTT5=
EXTT6=
EXTT7=
EXTT8=
EXTT9=
EXTT10=
EXTT11=
EXTT12=
PLAYORDER=
